<svg width="96" height="96" viewBox="0 0 96 96" fill="none" xmlns="http://www.w3.org/2000/svg">
<path d="M78 32C83.5228 32 88 27.5228 88 22C88 16.4772 83.5228 12 78 12C72.4772 12 68 16.4772 68 22C68 27.5228 72.4772 32 78 32Z" fill="#3F12C4"/>
<path d="M78 32C83.5228 32 88 27.5228 88 22C88 16.4772 83.5228 12 78 12C72.4772 12 68 16.4772 68 22C68 27.5228 72.4772 32 78 32Z" fill="#3F12C4"/>
<path opacity="0.4" d="M82.88 37.2469C85.4 36.4469 88 38.4069 88 41.0868V62.0468C88 76.0468 80 82.0468 68 82.0468H28C16 82.0468 8 76.0468 8 62.0468V34.0469C8 20.0469 16 14.0469 28 14.0469H58.44C61.04 14.0469 62.8 16.4469 62.32 18.9669C61.84 21.3269 61.92 23.8469 62.64 26.4469C64.12 31.8069 68.48 36.0869 73.84 37.4869C77 38.2869 80.08 38.1269 82.88 37.2469Z" fill="#3F12C4"/>
<path d="M47.9952 51.4752C44.6352 51.4752 41.2352 50.4352 38.6352 48.3152L26.1152 38.3152C24.8352 37.2752 24.5952 35.3952 25.6352 34.1152C26.6752 32.8352 28.5552 32.5952 29.8352 33.6352L42.3552 43.6352C45.3952 46.0752 50.5552 46.0752 53.5952 43.6352L58.3152 39.8752C59.5952 38.8352 61.5152 39.0352 62.5152 40.3552C63.5552 41.6352 63.3552 43.5552 62.0352 44.5552L57.3152 48.3152C54.7552 50.4352 51.3552 51.4752 47.9952 51.4752Z" fill="#3F12C4"/>
</svg>
